<svg width="87" height="85" viewBox="0 0 87 85" fill="none" xmlns="http://www.w3.org/2000/svg">
<path d="M26.7262 38.4992C25.8609 37.9187 24.5886 36.7491 23.7919 35.8758C23.2914 36.6517 21.6015 38.65 19.666 40.815C18.8609 40.0951 17.9023 39.3669 16.9296 38.6905C17.9373 37.5633 18.8792 36.4737 19.6291 35.5989C22.7011 31.8746 19.5038 28.5011 17.0761 28.552C18.1932 30.2912 17.9172 32.0403 16.6546 33.7767C16.2105 34.3455 15.2367 35.4708 14.0351 36.7788C12.7319 35.9679 11.5936 35.3687 10.9806 35.0461C10.8187 35.1911 10.3766 35.7938 10.2486 35.9369C10.8615 36.2596 11.822 37.0217 12.9276 37.9456C10.9544 40.0447 8.70172 42.3124 7.3429 43.5443C8.52272 44.2771 9.52469 45.1729 10.6869 46.5016C11.3387 45.0884 13.3964 42.6786 15.522 40.265C16.3846 41.1006 17.2472 41.9362 17.9526 42.6955C15.5974 45.2579 13.2328 47.6509 12.3801 48.2085C13.3254 48.6995 15.2126 50.2256 15.774 51.1461C16.5792 49.7412 25.0887 39.6106 26.7262 38.4992Z" fill="#DB3559"/>
<path d="M28.8268 45.8638C29.0263 44.3666 28.1736 43.3031 26.8639 42.8735C24.6663 42.1329 21.7942 43.2233 20.0493 46.9379C18.2943 50.6742 20.0488 53.487 21.9387 54.3748C25.6533 56.1197 28.2289 53.0074 29.2006 50.6001C30.171 48.1392 28.8331 45.6812 26.5696 45.7581C27.7403 46.6527 27.555 48.2892 26.708 50.0922C25.8904 51.7764 24.4978 53.217 23.335 52.6442C21.8795 51.9606 21.9359 50.3165 22.766 48.267C24.0425 45.1544 26.7356 43.7678 28.8268 45.8638Z" fill="#DB3559"/>
<path d="M36.3499 45.2353C36.7239 44.7785 37.9334 43.6742 39.1753 42.971C37.5743 42.9778 36.7647 42.9669 35.6146 42.8297C36.3461 40.1408 37.0449 37.8137 37.5271 36.9877C36.1696 37.9847 34.5003 38.8373 33.0531 39.4695C32.9931 40.1695 32.7834 41.2048 32.508 42.422C32.3207 42.3796 32.1282 42.3607 31.9122 42.3364C31.3955 42.6624 30.4624 43.6324 29.6693 44.0927C30.398 44.1346 31.2098 44.2444 32.0269 44.3309C31.231 47.5219 30.1751 51.3185 29.6944 53.7688C28.8921 57.9673 33.2831 58.7886 35.0375 56.7987C33.6842 56.6894 32.7937 55.4052 33.0497 53.8391C33.3237 52.3016 34.1584 48.5042 35.0783 44.8737C35.5933 44.9902 36.0327 45.1143 36.3499 45.2353Z" fill="#DB3559"/>
<path d="M50.1937 48.3938C52.4049 47.6154 53.0862 45.1062 52.2279 43.6359C51.2728 42.0105 48.877 42.0645 47.0326 42.8591C44.0663 44.094 41.9314 48.0417 43.0762 53.5718C44.8465 62.2109 52.8242 62.6069 56.537 57.7113C49.8123 60.0847 47.3194 55.4183 46.6248 52.8057C45.7713 49.6348 45.4921 45.6224 47.7397 44.7656C49.4801 44.0842 51.1306 46.2822 50.1937 48.3938Z" fill="#DB3559"/>
<path d="M60.8269 44.2384C59.9728 44.7416 58.6968 45.2979 57.6464 45.6511C58.1784 46.5712 58.8374 48.1428 59.4964 49.7144C59.8479 51.0011 59.7735 52.2117 59.0351 52.5598C57.6654 53.2616 56.1603 51.4306 55.6 50.0254C53.7342 45.4454 57.1877 44.3587 58.2534 44.9414C57.9131 43.4403 55.9353 42.6269 54.2272 43.6334C52.5315 44.6083 50.7501 47.0082 52.5916 51.2322C54.5866 55.8082 57.4478 55.7652 58.7458 55.1993C60.1538 54.5855 60.6897 53.5926 60.8025 52.47C61.115 53.0668 61.4016 53.5441 61.7158 53.9045C63.5984 56.1209 65.9975 54.2371 66.6936 52.6508C63.591 53.4012 61.4097 46.2359 60.8269 44.2384Z" fill="#DB3559"/>
<path d="M66.8645 35.3392C66.1415 36.2377 65.3028 36.7661 64.3152 37.4157C65.6325 38.881 66.8904 41.2613 65.6118 42.9218C68.81 46.8482 74.603 47.9179 77.3527 43.0472C74.0104 44.0362 70.4712 43.9474 68.2658 41.6578C68.6774 40.301 68.3898 37.4398 66.8645 35.3392ZM52.9919 37.879C54.4633 36.8352 55.8125 36.8196 57.0038 38.0161C58.0248 39.0416 65.4731 48.4518 66.8543 50.7936C67.5077 50.0757 68.6194 49.0464 69.6931 48.3885C68.1132 47.3228 62.2497 39.0982 59.4125 36.147C56.8212 33.4597 53.3802 35.5816 52.9919 37.879Z" fill="#DB3559"/>
<path d="M74.6656 37.0157C75.9724 36.3649 77.5763 33.1084 74.9313 30.9109C72.17 28.6284 70.1076 29.5003 68.7353 31.3808C67.4338 33.1644 66.8584 36.5179 70.9491 39.503C76.0091 43.1954 82.1563 39.0058 79.5957 33.7204C79.0246 36.661 76.0599 39.0136 72.7217 36.6667C70.8323 35.3473 68.8978 33.5197 69.8069 32.1925C70.6258 30.9481 72.2758 31.9441 73.1901 32.849C74.138 33.7487 74.9732 35.5763 74.6656 37.0157Z" fill="#DB3559"/>
</svg>
